<?xml version="1.0" encoding="utf-8"?>
<!-- Generator: Adobe Illustrator 19.0.0, SVG Export Plug-In . SVG Version: 6.00 Build 0)  -->
<svg version="1.1" id="Capa_1" xmlns="http://www.w3.org/2000/svg" xmlns:xlink="http://www.w3.org/1999/xlink" x="0px" y="0px"
	 viewBox="0 0 265 70" style="enable-background:new 0 0 265 70;" xml:space="preserve">
<style type="text/css">
	.st0{fill:#84E337;}
	.st1{fill:#272425;}
</style>
<g id="XMLID_2_">
	<g id="XMLID_21_">
		<path id="XMLID_29_" class="st0" d="M51.3,39.8c-3-4.5-6.4-8.1-9.9-11l7.8-11.8L35.6,9.3l-5.7,12.2c-9.6-4.5-17.6-5.1-17.6-5.1
			l-8,40l19.1,10.7L51.3,39.8z"/>
		<g id="XMLID_22_">
			<g id="XMLID_23_">
				<path id="XMLID_24_" class="st1" d="M22.2,64.9c-0.3,0-0.7-0.1-1-0.4c-0.5-0.5-0.5-1.4,0-1.9L49.6,35c-2.7-3.9-5.8-7-9-9.6
					L17.8,61.3c-0.4,0.6-1.2,0.8-1.8,0.4l-5-2.9l-1.7,3.8c-0.3,0.7-1.1,1-1.8,0.7c-0.7-0.3-1-1.1-0.7-1.8l1.8-4.1L2.4,54
					c-0.5-0.3-0.8-0.9-0.6-1.4l8-40c0.1-0.6,0.7-1.1,1.3-1.1c0.6,0,7.7,0.2,16.4,3.5l5-11.3C32.7,3.4,33,3.2,33.3,3
					c0.4-0.1,0.7-0.1,1.1,0.1l13.7,7.7c0.3,0.2,0.5,0.5,0.6,0.8c0.1,0.4,0,0.7-0.2,1L42,23.1c3.7,2.9,7.3,6.7,10.4,11.3
					c0.4,0.5,0.3,1.2-0.2,1.7L23.1,64.6C22.8,64.8,22.5,64.9,22.2,64.9z M12.1,56.4l4.2,2.4l22.2-35c-3.2-2.2-6.4-3.9-9.5-5.2
					L12.1,56.4z M4.6,52.2l5.1,2.9l16.7-37.6c-6.5-2.4-12-3-14.3-3.2L4.6,52.2z M30,16c3.2,1.4,6.5,3.1,9.8,5.4l5.7-9L34.4,6.2
					L30,16z"/>
			</g>
		</g>
	</g>
	<g id="XMLID_3_">
		<path id="XMLID_18_" class="st1" d="M92.5,28.8c-2.1-1.2-4.4-1.8-7-1.8c-2.9,0-5.4,0.7-7.6,2.2c-0.8,0.6-1.6,1.2-2.3,1.9V27H72
			v37.3h3.6V50.7c0.7,0.7,1.4,1.4,2.3,1.9c2.2,1.5,4.8,2.2,7.6,2.2c2.6,0,4.9-0.6,7-1.8c2.1-1.2,3.7-2.9,4.9-5
			c1.2-2.1,1.8-4.5,1.8-7.1c0-2.6-0.6-5-1.7-7.1C96.2,31.7,94.6,30,92.5,28.8z M85.6,51.2c-1.9,0-3.6-0.4-5.1-1.3
			c-1.5-0.9-2.7-2.1-3.5-3.6c-0.9-1.6-1.3-3.4-1.3-5.3c0-2,0.4-3.8,1.3-5.3c0.9-1.6,2-2.8,3.5-3.7c1.5-0.9,3.2-1.3,5.1-1.3
			c1.9,0,3.6,0.4,5.1,1.3c1.5,0.9,2.7,2.1,3.5,3.7c0.9,1.6,1.3,3.4,1.3,5.3c0,2-0.4,3.8-1.3,5.3c-0.9,1.6-2,2.8-3.5,3.6
			C89.2,50.8,87.5,51.2,85.6,51.2z"/>
		<path id="XMLID_15_" class="st1" d="M123,28.8c-2-1.2-4.3-1.8-6.8-1.8c-2.5,0-4.9,0.6-6.9,1.8c-2,1.2-3.7,2.9-4.8,5
			c-1.2,2.1-1.7,4.5-1.7,7.1c0,2.6,0.6,5,1.7,7.1c1.2,2.1,2.8,3.8,4.8,5c2,1.2,4.4,1.8,6.9,1.8c2.1,0,4.1-0.4,5.9-1.1
			c1.8-0.8,3.4-1.8,4.7-3.3l0.9-0.9l-2.6-2.6l-0.9,1.1c-0.9,1-2,1.8-3.4,2.4c-1.4,0.6-2.9,0.9-4.5,0.9c-1.9,0-3.6-0.4-5.1-1.3
			c-1.5-0.9-2.6-2.1-3.5-3.6c-0.7-1.2-1.1-2.6-1.2-4h22.8v-1.3c0-2.6-0.5-5-1.6-7.1C126.5,31.7,125,30,123,28.8z M106.6,38.6
			c0.2-1.3,0.7-2.5,1.3-3.5c0.9-1.4,2-2.5,3.4-3.3c1.4-0.8,3.1-1.2,4.9-1.2c2.7,0,4.9,0.8,6.6,2.5c1.4,1.4,2.3,3.2,2.7,5.4H106.6z"
			/>
		<path id="XMLID_14_" class="st1" d="M140.6,29.1c-0.5,0.4-1,0.8-1.5,1.3V27h-3.6v27.9h3.6V39.8c0.2-2.9,1.1-5.1,2.5-6.7
			c1.4-1.6,3.3-2.4,5.8-2.4l1.3,0V27l-1.4,0C144.8,27.1,142.5,27.8,140.6,29.1z"/>
		<rect id="XMLID_13_" x="153.2" y="27" class="st1" width="3.6" height="27.9"/>
		<path id="XMLID_12_" class="st1" d="M153.1,19.3c-0.5,0.5-0.8,1.1-0.8,1.8c0,0.7,0.3,1.3,0.7,1.8c0.5,0.5,1.1,0.8,1.9,0.8
			c0.7,0,1.3-0.3,1.8-0.8c0.5-0.5,0.8-1.1,0.8-1.8c0-0.7-0.3-1.4-0.8-1.9C155.7,18.2,154.1,18.3,153.1,19.3z"/>
		<path id="XMLID_11_" class="st1" d="M179,27c-2.9,0-5.4,0.8-7.4,2.1c-0.7,0.5-1.3,1-1.9,1.6V27h-3.6v27.9h3.6v-15
			c0.2-2.9,1.2-5.2,2.8-6.8c1.6-1.6,3.8-2.4,6.5-2.5c2.4,0,4.3,0.6,5.6,2c1.3,1.3,2,3.2,2,5.7v16.6h3.6V38.3c0-3.5-1-6.2-3-8.2
			C185.3,28,182.5,27,179,27z"/>
		<path id="XMLID_8_" class="st1" d="M216.3,28.8c-2.1-1.2-4.4-1.8-6.9-1.8c-2.5,0-4.9,0.6-6.9,1.8c-2.1,1.2-3.7,2.9-4.9,5
			c-1.2,2.1-1.8,4.5-1.8,7.1c0,2.6,0.6,5,1.8,7.1c1.2,2.1,2.8,3.8,4.9,5c2.1,1.2,4.4,1.8,6.9,1.8c2.5,0,4.9-0.6,6.9-1.8
			c2.1-1.2,3.7-2.9,4.9-5c1.2-2.1,1.7-4.5,1.7-7.1c0-2.6-0.6-5-1.7-7.1C220.1,31.7,218.4,30,216.3,28.8z M209.4,51.2
			c-1.9,0-3.6-0.4-5.1-1.3c-1.5-0.9-2.7-2.1-3.5-3.6c-0.8-1.6-1.3-3.4-1.3-5.4c0-2,0.4-3.8,1.3-5.4c0.8-1.5,2-2.7,3.5-3.6
			c1.5-0.9,3.2-1.3,5.1-1.3s3.6,0.4,5.1,1.3c1.5,0.9,2.7,2.1,3.5,3.6c0.8,1.5,1.3,3.3,1.3,5.4c0,2-0.4,3.8-1.3,5.4
			c-0.8,1.6-2,2.7-3.5,3.6C213,50.8,211.3,51.2,209.4,51.2z"/>
		<rect id="XMLID_7_" x="229.7" y="16.1" class="st1" width="3.6" height="38.8"/>
		<path id="XMLID_4_" class="st1" d="M262.9,36.7c0-3-1-5.3-2.8-7.1c-1.8-1.7-4.3-2.6-7.5-2.6c-3.4,0-6.9,1.3-10.2,4l-1,0.8l2.2,2.9
			l1.1-0.8c1.4-1.1,2.7-1.9,4-2.4c1.2-0.5,2.6-0.8,4-0.8c2.2,0,3.9,0.5,5,1.6c1.1,1,1.6,2.5,1.7,4.5v1.7h-8c-3.1,0-5.7,0.7-7.6,1.9
			c-2.1,1.4-3.1,3.4-3.1,5.9c0,2.5,0.9,4.6,2.7,6.2c1.8,1.6,4.1,2.4,6.8,2.4c2.5,0,4.8-0.5,6.8-1.6c0.9-0.5,1.7-1,2.4-1.7l0,3.3h3.6
			L262.9,36.7z M245.8,43.3c1.2-0.8,3.1-1.2,5.5-1.2h8l0,3.3c-0.9,2-2,3.5-3.5,4.4c-1.5,1-3.5,1.5-5.7,1.5c-1.9,0-3.3-0.5-4.4-1.4
			c-1-0.9-1.5-2.1-1.5-3.6C244.2,45,244.7,44,245.8,43.3z"/>
	</g>
</g>
</svg>
